<svg width="240" height="58" viewBox="0 0 240 58" fill="none" xmlns="http://www.w3.org/2000/svg">
<path d="M28.964 45.52C30.8227 45.52 32.408 44.7 33.72 43.06C35.0867 41.42 36.0433 39.3973 36.59 36.992C37.1913 34.5867 37.492 32.0173 37.492 29.284C37.492 26.496 37.1913 23.872 36.59 21.412C35.9887 18.8973 35.0047 16.7653 33.638 15.016C32.326 13.2667 30.768 12.392 28.964 12.392C27.2147 12.392 25.684 13.2667 24.372 15.016C23.06 16.7653 22.076 18.8973 21.42 21.412C20.764 23.9267 20.436 26.5507 20.436 29.284C20.436 32.0173 20.7367 34.5867 21.338 36.992C21.994 39.3973 22.978 41.42 24.29 43.06C25.6567 44.7 27.2147 45.52 28.964 45.52ZM43.478 54.294C39.1593 56.426 34.294 57.492 28.882 57.492C23.5247 57.492 18.6867 56.426 14.368 54.294C10.104 52.1073 6.68733 48.8547 4.118 44.536C1.54867 40.2173 0.264 35.1333 0.264 29.284C0.264 20.428 2.91533 13.4033 8.218 8.21C13.5753 2.962 20.4907 0.337996 28.964 0.337996C37.4373 0.337996 44.3527 2.962 49.71 8.21C55.0673 13.4033 57.746 20.428 57.746 29.284C57.746 35.1333 56.434 40.2173 53.81 44.536C51.2407 48.8547 47.7967 52.1073 43.478 54.294ZM98.3924 17.148C98.3924 14.524 97.4357 12.72 95.5224 11.736C93.609 10.752 90.3837 10.26 85.8464 10.26V24.446C90.1104 24.446 93.2537 23.9267 95.2764 22.888C97.3537 21.7947 98.3924 19.8813 98.3924 17.148ZM85.8464 44.7C85.8464 52.9 82.6484 57 76.2524 57C73.027 57 70.649 56.1527 69.1184 54.458C67.6424 52.7087 66.9044 49.6473 66.9044 45.274V10.67C66.9044 7.49933 67.7517 5.094 69.4464 3.454C71.1957 1.75933 73.4644 0.911999 76.2524 0.911999H93.4724C100.196 0.911999 105.636 2.49733 109.79 5.668C113.945 8.784 116.022 12.802 116.022 17.722C116.022 21.4393 115.23 24.364 113.644 26.496C112.114 28.5733 109.626 30.104 106.182 31.088C108.806 31.252 111.239 32.5367 113.48 34.942C115.722 37.2927 116.842 40.2447 116.842 43.798C116.842 47.406 116.487 50.194 115.776 52.162C115.12 54.0753 114.164 55.36 112.906 56.016C111.649 56.672 109.872 57 107.576 57C104.351 57 101.973 56.344 100.442 55.032C98.9664 53.6653 98.2284 51.6153 98.2284 48.882C98.2284 45.4927 97.9004 42.896 97.2444 41.092C96.5884 39.2333 95.741 38.0307 94.7024 37.484C93.6637 36.9373 92.215 36.664 90.3564 36.664L85.8464 36.746V44.7ZM158.587 16.246C158.587 15.098 158.095 14.114 157.111 13.294C156.181 12.474 155.061 12.064 153.749 12.064C151.125 12.064 148.965 13.5673 147.271 16.574C145.576 19.526 144.729 22.888 144.729 26.66C144.729 29.5573 145.275 32.1813 146.369 34.532C147.462 36.828 149.047 38.6593 151.125 40.026C153.202 41.3927 155.607 42.076 158.341 42.076C160.363 42.076 162.304 41.6933 164.163 40.928C166.021 40.108 167.525 39.2333 168.673 38.304C169.821 37.32 170.996 36.4453 172.199 35.68C173.456 34.86 174.549 34.45 175.479 34.45C176.681 34.45 177.72 34.942 178.595 35.926C179.469 36.8553 179.907 37.8393 179.907 38.878C179.907 40.026 179.551 41.3653 178.841 42.896C178.185 44.4267 177.119 46.0667 175.643 47.816C174.167 49.5107 172.445 51.096 170.477 52.572C168.509 53.9933 166.049 55.196 163.097 56.18C160.199 57.1093 157.138 57.574 153.913 57.574C149.649 57.574 145.685 56.9453 142.023 55.688C138.415 54.376 135.271 52.5447 132.593 50.194C129.914 47.7887 127.809 44.782 126.279 41.174C124.748 37.566 123.983 33.5207 123.983 29.038C123.983 20.182 126.634 13.1847 131.937 8.046C137.239 2.90733 144.182 0.337996 152.765 0.337996C157.138 0.337996 161.183 1.076 164.901 2.552C168.618 4.028 171.57 6.078 173.757 8.702C175.943 11.326 177.037 14.196 177.037 17.312C177.037 20.92 175.834 24.2 173.429 27.152C171.023 30.0493 167.907 31.498 164.081 31.498C161.894 31.498 159.926 30.8967 158.177 29.694C156.427 28.4913 155.553 26.7693 155.553 24.528C155.553 23.4893 156.045 22.0407 157.029 20.182C158.067 18.3233 158.587 17.0113 158.587 16.246ZM213.379 14.196C211.029 14.196 209.279 14.8793 208.131 16.246C207.038 17.6127 206.491 20.0453 206.491 23.544V33.22H220.103V23.38C220.103 21.084 219.83 19.2527 219.283 17.886C218.737 16.4647 217.971 15.508 216.987 15.016C216.058 14.4693 214.855 14.196 213.379 14.196ZM220.103 44.536H206.491V48.882C206.491 51.67 205.753 53.72 204.277 55.032C202.801 56.344 200.259 57 196.651 57C195.121 57 193.863 56.7813 192.879 56.344C191.895 55.9067 191.021 55.1687 190.255 54.13C189.545 53.0913 188.998 51.588 188.615 49.62C188.287 47.5973 188.014 45.192 187.795 42.404C187.631 39.5613 187.549 35.9807 187.549 31.662C187.549 27.89 187.932 24.446 188.697 21.33C189.517 18.1593 190.583 15.4807 191.895 13.294C193.262 11.1073 194.793 9.194 196.487 7.554C198.182 5.85933 200.013 4.54733 201.981 3.618C204.004 2.68866 205.945 2.00533 207.803 1.568C209.717 1.076 211.63 0.829995 213.543 0.829995C215.839 0.829995 218.108 1.158 220.349 1.814C222.591 2.41533 224.859 3.48133 227.155 5.012C229.451 6.54267 231.447 8.456 233.141 10.752C234.891 12.9933 236.312 15.918 237.405 19.526C238.499 23.134 239.045 27.1793 239.045 31.662C239.045 38.878 238.772 44.2353 238.225 47.734C237.733 51.178 236.859 53.5833 235.601 54.95C234.399 56.3167 232.513 57 229.943 57C226.335 57 223.793 56.344 222.317 55.032C220.841 53.72 220.103 51.67 220.103 48.882V44.536Z" fill="#0072BC"/>
</svg>
